# xmcd
#
# Track frame offsets:
#	150
#	15932
#	28777
#	42238
#
# Disc length: 760 seconds
#
# Revision: 1
# Processed by: cddbd v1.5.1PL0 Copyright (c) Steve Scherf et al.
# Submitted via: audiograbber 1.83.01
#
DISCID=2302f604
DTITLE=twang! - Rock, Pop and Disco Classics Go Country
DYEAR=2005
DGENRE=Country
TTITLE0=Sympathy For The Devil
TTITLE1=We Are The Champions
TTITLE2=Hot Stuff
TTITLE3=My Heart Will Go On (Love Theme From Titanic)
EXTD=Country Music from GERMANY
EXTT0=
EXTT1=
EXTT2=
EXTT3=
PLAYORDER=
